HIERARCHY
ROOT Hips
{
    OFFSET 0.000000 0.000000 0.000000
    CHANNELS 6 Xposition Yposition Zposition Zrotation Xrotation Yrotation
    JOINT Spine
    {
        OFFSET -0.000000 14.517291 0.000000
        CHANNELS 3 Zrotation Xrotation Yrotation
        JOINT Spine1
        {
            OFFSET -0.000000 37.558300 0.000000
            CHANNELS 3 Zrotation Xrotation Yrotation
            JOINT Neck
            {
                OFFSET -0.000000 37.404057 3.400369
                CHANNELS 3 Zrotation Xrotation Yrotation
                JOINT Head
                {
                    OFFSET -0.000000 24.785618 -3.540803
                    CHANNELS 3 Zrotation Xrotation Yrotation
                    End Site
                    {
                        OFFSET -0.000000 35.408028 0.000000
                    }
                }
            }
            JOINT LeftShoulder
            {
                OFFSET 6.992933 33.973492 -0.192664
                CHANNELS 3 Zrotation Xrotation Yrotation
                JOINT LeftArm
                {
                    OFFSET 21.527611 0.000000 0.000000
                    CHANNELS 3 Zrotation Xrotation Yrotation
                    JOINT LeftForeArm
                    {
                        OFFSET 56.353916 0.000000 0.000000
                        CHANNELS 3 Zrotation Xrotation Yrotation
                        JOINT LeftHand
                        {
                            OFFSET 47.774071 0.000000 0.000000
                            CHANNELS 3 Zrotation Xrotation Yrotation
                            End Site
                            {
                                OFFSET 26.556021 0.000000 0.000000
                            }
                        }
                    }
                }
            }
            JOINT RightShoulder
            {
                OFFSET -7.065357 33.973492 -0.192664
                CHANNELS 3 Zrotation Xrotation Yrotation
                JOINT RightArm
                {
                    OFFSET -21.527611 0.000000 0.000000
                    CHANNELS 3 Zrotation Xrotation Yrotation
                    JOINT RightForeArm
                    {
                        OFFSET -56.353916 0.000000 0.000000
                        CHANNELS 3 Zrotation Xrotation Yrotation
                        JOINT RightHand
                        {
                            OFFSET -47.774071 0.000000 0.000000
                            CHANNELS 3 Zrotation Xrotation Yrotation
                            End Site
                            {
                                OFFSET -26.556021 0.000000 0.000000
                            }
                        }
                    }
                }
            }
        }
    }
    JOINT LeftUpLeg
    {
        OFFSET 17.704014 0.000000 0.000000
        CHANNELS 3 Zrotation Xrotation Yrotation
        JOINT LeftLeg
        {
            OFFSET -0.000000 -81.181816 0.000000
            CHANNELS 3 Zrotation Xrotation Yrotation
            JOINT LeftFoot
            {
                OFFSET -0.000000 -62.821102 0.000000
                CHANNELS 3 Zrotation Xrotation Yrotation
                JOINT LeftToeBase
                {
                    OFFSET -0.000000 -11.507608 26.556021
                    CHANNELS 3 Zrotation Xrotation Yrotation
                    End Site
                    {
                        OFFSET -0.000000 0.000000 7.081605
                    }
                }
            }
        }
    }
    JOINT RightUpLeg
    {
        OFFSET -17.704014 0.000000 0.000000
        CHANNELS 3 Zrotation Xrotation Yrotation
        JOINT RightLeg
        {
            OFFSET -0.000000 -81.181816 0.000000
            CHANNELS 3 Zrotation Xrotation Yrotation
            JOINT RightFoot
            {
                OFFSET -0.000000 -62.821102 0.000000
                CHANNELS 3 Zrotation Xrotation Yrotation
                JOINT RightToeBase
                {
                    OFFSET -0.000000 -11.507608 26.556021
                    CHANNELS 3 Zrotation Xrotation Yrotation
                    End Site
                    {
                        OFFSET -0.000000 0.000000 7.081605
                    }
                }
            }
        }
    }
}
MOTION
Frames:    9
Frame Time:    0.008333
1.104420    155.029388    -103.933777    -0.533946    -2.144655    39.684082    -1.461787    2.865250    -2.423795    -5.101249    0.406473    -0.801582    4.356973    2.616357    -17.435812    14.112947    1.438612    -16.934717    6.415590    6.776466    -19.711445    -24.441755    20.804117    -57.720848    -2.536582    -8.563650    -101.404686    11.375228    -12.622046    -10.300252    -9.422916    -2.823029    -3.220337    24.305885    -24.541571    53.139866    -18.806242    -12.752517    63.687912    -1.861739    -1.665065    37.620827    17.490173    -6.110752    -14.860029    -6.823034    29.151592    -30.151186    6.865942    -25.396765    40.296749    0.000000    0.000000    0.000000    -18.114235    -17.928263    -10.839931    7.334527    16.591909    -10.616684    5.891087    8.211246    -23.128405    0.000000    0.000000    0.000000    
1.053218    155.038147    -103.882538    -0.523383    -2.137879    39.894135    -1.464610    2.493395    -1.280351    -6.287015    1.816599    -0.337380    7.266535    1.016014    -17.906578    12.416076    1.243015    -18.092960    9.414557    6.125304    -20.619490    -25.188116    20.560640    -59.818527    -2.212709    -9.107259    -100.590874    11.304908    -12.714549    -10.160039    -7.808368    -3.892904    -5.543420    22.864557    -23.621510    52.879086    -19.373846    -13.758729    62.588387    -1.478576    -2.473540    38.367939    17.629730    -6.079274    -15.025663    -7.131354    28.886063    -29.484499    6.921368    -25.237400    40.468128    0.000000    0.000000    0.000000    -18.157740    -17.895163    -10.868833    7.356906    16.689688    -10.657842    5.887509    8.116888    -23.231449    0.000000    0.000000    0.000000    
1.018934    155.046326    -103.823746    -0.497283    -2.133386    40.095737    -1.475593    2.911291    -2.456908    -5.030882    0.395498    -0.813639    4.360203    2.714528    -17.532721    14.116504    1.412765    -17.029428    6.386776    6.861054    -19.799080    -24.576765    20.856882    -57.717758    -2.530469    -8.607455    -101.387962    11.395071    -12.649140    -10.201566    -9.454803    -2.891705    -3.330098    24.285227    -24.534855    52.971687    -18.811390    -12.786304    63.689384    -1.835810    -1.686081    37.551037    17.748587    -6.047535    -14.630447    -7.157609    28.744379    -29.278154    6.907944    -25.143921    40.495892    0.000000    0.000000    0.000000    -18.219719    -17.842321    -10.866769    7.409049    16.780857    -10.698967    5.901548    7.991235    -23.367411    0.000000    0.000000    0.000000    
0.994398    155.054550    -103.768829    -0.477606    -2.125862    40.280510    -1.472591    2.462751    -1.355308    -6.237434    1.933003    -0.356773    7.254907    1.056992    -17.950113    12.461510    1.248232    -18.129169    9.390153    6.148074    -20.615662    -25.269352    20.681986    -59.830948    -2.175340    -9.240021    -100.617249    11.359144    -12.793159    -10.010324    -7.841977    -3.952771    -5.624844    22.898352    -23.665211    52.792435    -19.349142    -13.778378    62.588581    -1.532972    -2.526021    38.215496    17.868078    -6.023220    -14.336171    -7.272436    28.617029    -28.857418    7.002155    -25.009348    40.541573    0.000000    0.000000    0.000000    -18.271164    -17.797739    -10.878508    7.432551    16.865007    -10.691122    5.937706    7.873838    -23.511896    0.000000    0.000000    0.000000    
0.974920    155.065216    -103.719238    -0.459113    -2.117815    40.436554    -1.483066    2.877661    -2.504742    -5.025153    0.475405    -0.825996    4.452555    2.828439    -17.567410    14.155668    1.365486    -17.062147    6.407160    6.922583    -19.833771    -24.660179    20.978832    -57.717957    -2.485614    -8.747377    -101.392662    11.422734    -12.720901    -10.042020    -9.389840    -2.875933    -3.420267    24.294687    -24.600880    52.909611    -18.761492    -12.815334    63.691147    -1.907739    -1.770347    37.462635    17.992672    -5.979119    -13.863234    -7.312435    28.488359    -28.687454    7.080994    -24.885422    40.644562    0.000000    0.000000    0.000000    -18.314329    -17.759912    -10.879110    7.458580    16.935440    -10.699600    5.951438    7.777612    -23.645977    0.000000    0.000000    0.000000    
0.967658    155.071396    -103.681015    -0.430427    -2.109991    40.560715    -1.467744    2.435804    -1.409793    -6.256752    1.997849    -0.370918    7.294490    1.168321    -17.974112    12.573304    1.250901    -18.138885    9.401829    6.228327    -20.585043    -25.343555    20.747320    -59.860023    -1.856842    -9.241379    -100.646568    11.521409    -12.343789    -9.093995    -7.782955    -3.919361    -5.689272    22.961882    -23.700819    52.788448    -19.346779    -13.805252    62.572628    -1.517537    -2.552584    38.156979    18.092299    -5.903990    -13.384502    -7.306859    28.340996    -28.463478    7.071993    -24.803793    40.659870    0.000000    0.000000    0.000000    -18.364435    -17.733521    -10.867072    7.473336    17.020752    -10.690787    6.021609    7.662303    -23.776335    0.000000    0.000000    0.000000    
0.969330    155.078705    -103.655884    -0.400928    -2.099155    40.661255    -1.296968    2.700218    -2.810740    -5.262868    0.630382    -0.917817    4.212216    3.192865    -17.444128    14.575678    1.346538    -16.833481    6.189052    7.023553    -19.566549    -24.567862    21.096127    -57.387348    -2.589028    -8.907619    -101.528091    11.274686    -12.999197    -10.065145    -9.363231    -2.788755    -2.878950    24.520012    -24.815132    52.828644    -18.714865    -12.706359    63.802082    -1.920401    -1.664717    37.316257    18.189028    -5.838900    -12.879477    -7.308150    28.233994    -28.403044    7.177273    -24.686680    40.787266    0.000000    0.000000    0.000000    -18.417736    -17.721546    -10.817871    7.504416    17.101213    -10.709401    6.061697    7.578578    -23.907907    0.000000    0.000000    0.000000    
0.987275    155.084473    -103.633102    -0.356297    -2.087199    40.758423    -1.502857    2.431406    -1.469647    -6.199899    2.030353    -0.390398    7.215876    1.230447    -17.977304    12.690608    1.372899    -18.125942    9.297796    6.303256    -20.514477    -25.409336    20.870289    -59.718246    -2.338406    -9.324692    -100.706863    11.051617    -13.035909    -9.901249    -7.793100    -3.845937    -5.709450    23.052301    -23.685659    52.823746    -19.397739    -13.871158    62.569386    -1.451266    -2.565429    38.102272    18.252146    -5.791827    -12.171638    -7.190570    28.229349    -28.497250    7.181544    -24.636196    40.797413    0.000000    0.000000    0.000000    -18.487589    -17.702637    -10.786712    7.523144    17.194929    -10.710605    6.131180    7.479537    -24.037018    0.000000    0.000000    0.000000    
1.013823    155.086990    -103.624367    -0.304071    -2.072282    40.842098    -1.569623    2.862838    -2.583074    -4.954246    0.571032    -0.848992    4.437315    2.938703    -17.586233    14.316456    1.557873    -17.079348    6.325703    7.064458    -19.767923    -24.832457    21.096840    -57.635910    -2.137614    -8.664396    -101.483749    11.541530    -12.111340    -8.772702    -9.332703    -2.778165    -3.508196    24.437641    -24.566633    52.934681    -18.827887    -12.937217    63.678421    -1.754642    -1.803028    37.424679    18.294746    -5.724921    -11.662882    -7.188900    28.132099    -27.887281    6.983452    -24.557785    40.336380    0.000000    0.000000    0.000000    -18.571955    -17.687864    -10.765353    7.549538    17.292501    -10.726042    6.203351    7.380078    -24.139235    0.000000    0.000000    0.000000    
